<svg width="429" height="121" viewBox="0 0 429 121" fill="none" xmlns="http://www.w3.org/2000/svg">
<path d="M8.128 103.011C8.128 104.643 8.32 106.115 8.704 107.427C9.12 108.739 9.696 109.875 10.432 110.835C11.2 111.763 12.128 112.483 13.216 112.995C14.304 113.507 15.552 113.763 16.96 113.763C18.336 113.763 19.568 113.507 20.656 112.995C21.776 112.483 22.704 111.763 23.44 110.835C24.208 109.875 24.784 108.739 25.168 107.427C25.584 106.115 25.792 104.643 25.792 103.011C25.792 101.379 25.584 99.907 25.168 98.595C24.784 97.251 24.208 96.115 23.44 95.187C22.704 94.227 21.776 93.491 20.656 92.979C19.568 92.467 18.336 92.211 16.96 92.211C15.552 92.211 14.304 92.483 13.216 93.027C12.128 93.539 11.2 94.275 10.432 95.235C9.696 96.163 9.12 97.299 8.704 98.643C8.32 99.955 8.128 101.411 8.128 103.011ZM33.52 103.011C33.52 105.859 33.088 108.371 32.224 110.547C31.392 112.691 30.24 114.499 28.768 115.971C27.296 117.411 25.536 118.499 23.488 119.235C21.472 119.971 19.296 120.339 16.96 120.339C14.688 120.339 12.544 119.971 10.528 119.235C8.512 118.499 6.752 117.411 5.248 115.971C3.744 114.499 2.56 112.691 1.696 110.547C0.832 108.371 0.4 105.859 0.4 103.011C0.4 100.163 0.848 97.667 1.744 95.523C2.64 93.347 3.84 91.523 5.344 90.051C6.88 88.579 8.64 87.475 10.624 86.739C12.64 86.003 14.752 85.635 16.96 85.635C19.232 85.635 21.376 86.003 23.392 86.739C25.408 87.475 27.168 88.579 28.672 90.051C30.176 91.523 31.36 93.347 32.224 95.523C33.088 97.667 33.52 100.163 33.52 103.011ZM63.3089 86.403V92.787H53.2769V119.667H45.7889V92.787H35.7569V86.403H63.3089ZM187.436 119.667H103.809L92.0333 107.891V83.9977H115.927V95.7737H175.489V66.2483H127.703H92.0333V0.200314H194.092V24.0937H115.927V42.1843H187.436L199.212 53.9603V107.891L187.436 119.667ZM240.093 80.243L284.296 24.0937H240.093V80.243ZM299.656 95.7737V40.1363L256.307 95.7737H299.656ZM311.603 119.667H227.976L216.2 107.891V12.3177L227.976 0.200314H311.603L323.379 12.3177V107.891L311.603 119.667ZM396.172 119.667H354.892V86.403H362.38V113.331H371.788V86.403H379.276V113.331H388.684V86.403H396.172V119.667ZM428.502 86.403V92.787H418.47V119.667H410.982V92.787H400.95V86.403H428.502Z" fill="#4B80E5"/>
</svg>
