<svg width="50" height="50" viewBox="0 0 50 50" fill="none" xmlns="http://www.w3.org/2000/svg">
<g clip-path="url(#clip0_1_514)">
<path d="M42.643 38.9905C41.807 38.9911 40.9896 38.7438 40.2942 38.2798C39.5988 37.8158 39.0567 37.1559 38.7363 36.3838C38.416 35.6116 38.3318 34.7617 38.4946 33.9417C38.6573 33.1217 39.0595 32.3684 39.6505 31.777C40.2414 31.1857 40.9944 30.7828 41.8143 30.6195C42.6342 30.4562 43.4841 30.5397 44.2565 30.8595C45.029 31.1793 45.6892 31.721 46.1537 32.416C46.6182 33.1111 46.8662 33.9283 46.8662 34.7643C46.8656 35.8845 46.4206 36.9586 45.6288 37.751C44.837 38.5434 43.7632 38.9892 42.643 38.9905ZM42.643 32.0798C42.1119 32.0791 41.5926 32.2361 41.1507 32.5307C40.7089 32.8253 40.3643 33.2444 40.1606 33.7348C39.957 34.2253 39.9034 34.7652 40.0066 35.2861C40.1098 35.8071 40.3653 36.2857 40.7406 36.6615C41.1159 37.0372 41.5942 37.2932 42.1151 37.3971C42.6359 37.5009 43.1759 37.4479 43.6666 37.2448C44.1573 37.0417 44.5767 36.6976 44.8719 36.2561C45.167 35.8145 45.3245 35.2954 45.3245 34.7643C45.3242 34.0529 45.0417 33.3707 44.539 32.8674C44.0363 32.3641 43.3544 32.0808 42.643 32.0798ZM20.3721 38.9905C19.5361 38.9913 18.7186 38.7442 18.023 38.2803C17.3275 37.8164 16.7852 37.1566 16.4647 36.3845C16.1442 35.6123 16.0599 34.7624 16.2225 33.9423C16.3851 33.1223 16.7873 32.3688 17.3782 31.7774C17.969 31.1859 18.7221 30.783 19.542 30.6196C20.3619 30.4562 21.2119 30.5396 21.9844 30.8594C22.7568 31.1791 23.4171 31.7208 23.8817 32.4159C24.3463 33.111 24.5942 33.9283 24.5942 34.7643C24.5934 35.8842 24.1485 36.9581 23.357 37.7503C22.5654 38.5426 21.492 38.9886 20.3721 38.9905ZM20.3721 32.0798C19.841 32.0789 19.3216 32.2357 18.8795 32.5302C18.4375 32.8247 18.0928 33.2437 17.889 33.7341C17.6852 34.2246 17.6314 34.7645 17.7345 35.2855C17.8377 35.8065 18.093 36.2853 18.4683 36.6611C18.8436 37.037 19.3219 37.2931 19.8428 37.397C20.3636 37.5009 20.9036 37.448 21.3944 37.2449C21.8852 37.0418 22.3047 36.6978 22.5998 36.2562C22.895 35.8146 23.0526 35.2954 23.0526 34.7643C23.052 34.0532 22.7696 33.3713 22.2671 32.8681C21.7647 32.3649 21.0832 32.0814 20.3721 32.0798Z" fill="white"/>
<path d="M48.2044 35.5351H46.0965C45.892 35.5351 45.696 35.4539 45.5514 35.3093C45.4068 35.1648 45.3256 34.9687 45.3256 34.7643C45.3256 34.5598 45.4068 34.3638 45.5514 34.2192C45.696 34.0747 45.892 33.9934 46.0965 33.9934H47.9865V29.906C47.986 29.3533 47.8445 28.81 47.5754 28.3273L43.4026 20.8461C43.367 20.7823 43.315 20.7291 43.2519 20.692C43.1889 20.655 43.1171 20.6355 43.044 20.6354H37.3573V33.9965H39.1929C39.3973 33.9965 39.5934 34.0777 39.7379 34.2223C39.8825 34.3669 39.9637 34.5629 39.9637 34.7674C39.9637 34.9718 39.8825 35.1679 39.7379 35.3124C39.5934 35.457 39.3973 35.5382 39.1929 35.5382H36.5864C36.382 35.5382 36.1859 35.457 36.0414 35.3124C35.8968 35.1679 35.8156 34.9718 35.8156 34.7674V19.8646C35.8156 19.6601 35.8968 19.4641 36.0414 19.3195C36.1859 19.175 36.382 19.0938 36.5864 19.0938H43.044C43.3917 19.0936 43.7332 19.1863 44.0331 19.3623C44.3331 19.5383 44.5806 19.7911 44.7501 20.0948L48.9218 27.577C49.3184 28.2892 49.5268 29.0908 49.5272 29.906V34.2124C49.5266 34.563 49.3871 34.8991 49.1391 35.1471C48.8912 35.395 48.5551 35.5346 48.2044 35.5351ZM16.9209 35.5351H9.53017C9.32573 35.5351 9.12967 35.4539 8.98511 35.3093C8.84055 35.1648 8.75934 34.9687 8.75934 34.7643V28.8361C8.75934 28.6316 8.84055 28.4356 8.98511 28.291C9.12967 28.1464 9.32573 28.0652 9.53017 28.0652C9.73461 28.0652 9.93067 28.1464 10.0752 28.291C10.2198 28.4356 10.301 28.6316 10.301 28.8361V33.9934H16.9209C17.1254 33.9934 17.3214 34.0747 17.466 34.2192C17.6105 34.3638 17.6918 34.5598 17.6918 34.7643C17.6918 34.9687 17.6105 35.1648 17.466 35.3093C17.3214 35.4539 17.1254 35.5351 16.9209 35.5351ZM9.53017 26.1011C9.32573 26.1011 9.12967 26.0199 8.98511 25.8754C8.84055 25.7308 8.75934 25.5347 8.75934 25.3303V20.1544C8.75934 19.95 8.84055 19.7539 8.98511 19.6094C9.12967 19.4648 9.32573 19.3836 9.53017 19.3836C9.73461 19.3836 9.93067 19.4648 10.0752 19.6094C10.2198 19.7539 10.301 19.95 10.301 20.1544V25.3334C10.3002 25.5373 10.2186 25.7326 10.0741 25.8765C9.92968 26.0203 9.73408 26.1011 9.53017 26.1011Z" fill="white"/>
<path d="M36.5855 35.5355H23.8236C23.6191 35.5355 23.4231 35.4543 23.2785 35.3097C23.1339 35.1652 23.0527 34.9691 23.0527 34.7647C23.0527 34.5602 23.1339 34.3642 23.2785 34.2196C23.4231 34.075 23.6191 33.9938 23.8236 33.9938H35.8146V13.8278H10.3001V17.0026C10.3001 17.207 10.2188 17.4031 10.0743 17.5477C9.92973 17.6922 9.73367 17.7734 9.52923 17.7734C9.32479 17.7734 9.12873 17.6922 8.98417 17.5477C8.83961 17.4031 8.75839 17.207 8.75839 17.0026V13.686C8.75894 13.3147 8.90674 12.9588 9.16936 12.6964C9.43199 12.4339 9.78799 12.2864 10.1593 12.2861H35.9565C36.3276 12.2867 36.6833 12.4343 36.9457 12.6967C37.2081 12.9591 37.3558 13.3149 37.3563 13.686V34.7647C37.3563 34.9691 37.2751 35.1652 37.1305 35.3097C36.986 35.4543 36.7899 35.5355 36.5855 35.5355ZM12.5766 29.6073H2.79317C2.58873 29.6073 2.39267 29.5261 2.24811 29.3815C2.10355 29.2369 2.02234 29.0409 2.02234 28.8364C2.02234 28.632 2.10355 28.4359 2.24811 28.2914C2.39267 28.1468 2.58873 28.0656 2.79317 28.0656H12.5766C12.781 28.0656 12.9771 28.1468 13.1217 28.2914C13.2662 28.4359 13.3474 28.632 13.3474 28.8364C13.3474 29.0409 13.2662 29.2369 13.1217 29.3815C12.9771 29.5261 12.781 29.6073 12.5766 29.6073Z" fill="white"/>
<path d="M20.3726 26.1012H6.7206C6.51617 26.1012 6.3201 26.02 6.17554 25.8754C6.03098 25.7309 5.94977 25.5348 5.94977 25.3304C5.94977 25.1259 6.03098 24.9299 6.17554 24.7853C6.3201 24.6407 6.51617 24.5595 6.7206 24.5595H20.3726C20.577 24.5595 20.7731 24.6407 20.9176 24.7853C21.0622 24.9299 21.1434 25.1259 21.1434 25.3304C21.1434 25.5348 21.0622 25.7309 20.9176 25.8754C20.7731 26.02 20.577 26.1012 20.3726 26.1012ZM6.29613 22.0312H0.965047C0.760609 22.0312 0.564545 21.95 0.419986 21.8054C0.275426 21.6609 0.194214 21.4648 0.194214 21.2604C0.194214 21.0559 0.275426 20.8599 0.419986 20.7153C0.564545 20.5707 0.760609 20.4895 0.965047 20.4895H6.29613C6.50057 20.4895 6.69663 20.5707 6.84119 20.7153C6.98575 20.8599 7.06696 21.0559 7.06696 21.2604C7.06696 21.4648 6.98575 21.6609 6.84119 21.8054C6.69663 21.95 6.50057 22.0312 6.29613 22.0312ZM14.8442 17.7731H5.43383C5.22939 17.7731 5.03332 17.6919 4.88876 17.5473C4.7442 17.4028 4.66299 17.2067 4.66299 17.0023C4.66299 16.7978 4.7442 16.6018 4.88876 16.4572C5.03332 16.3127 5.22939 16.2314 5.43383 16.2314H14.8442C15.0486 16.2314 15.2447 16.3127 15.3892 16.4572C15.5338 16.6018 15.615 16.7978 15.615 17.0023C15.615 17.2067 15.5338 17.4028 15.3892 17.5473C15.2447 17.6919 15.0486 17.7731 14.8442 17.7731Z" fill="white"/>
</g>
<defs>
<clipPath id="clip0_1_514">
<rect width="49.3333" height="49.3333" fill="white" transform="translate(0.28772 0.666992)"/>
</clipPath>
</defs>
</svg>
