<svg width="42" height="41" viewBox="0 0 42 41" fill="none" xmlns="http://www.w3.org/2000/svg">
<g clip-path="url(#clip0_1_511)">
<path d="M0.976729 35.6671C2.1177 35.6685 3.04201 36.563 3.04339 37.6671C3.04339 37.8439 3.11597 38.0135 3.24516 38.1385C3.37435 38.2636 3.54957 38.3338 3.73228 38.3338C3.91498 38.3338 4.0902 38.2636 4.2194 38.1385C4.34859 38.0135 4.42117 37.8439 4.42117 37.6671C4.42254 36.563 5.34686 35.6685 6.48783 35.6671C6.67053 35.6671 6.84575 35.5969 6.97495 35.4719C7.10414 35.3468 7.17672 35.1773 7.17672 35.0005C7.17672 34.8237 7.10414 34.6541 6.97495 34.5291C6.84575 34.404 6.67053 34.3338 6.48783 34.3338C5.34686 34.3325 4.42254 33.438 4.42117 32.3338C4.42117 32.157 4.34859 31.9874 4.2194 31.8624C4.0902 31.7374 3.91498 31.6671 3.73228 31.6671C3.54957 31.6671 3.37435 31.7374 3.24516 31.8624C3.11597 31.9874 3.04339 32.157 3.04339 32.3338C3.04201 33.438 2.1177 34.3325 0.976729 34.3338C0.794025 34.3338 0.618804 34.404 0.489612 34.5291C0.360421 34.6541 0.287842 34.8237 0.287842 35.0005C0.287842 35.1773 0.360421 35.3468 0.489612 35.4719C0.618804 35.5969 0.794025 35.6671 0.976729 35.6671ZM3.73228 34.3319C3.92897 34.585 4.16155 34.8101 4.42315 35.0005C4.16155 35.1908 3.92897 35.4159 3.73228 35.669C3.53559 35.4159 3.30301 35.1908 3.04141 35.0005C3.30301 34.8101 3.53559 34.585 3.73228 34.3319ZM1.66562 5.66719H6.55586L9.24536 39.718C9.27266 40.0655 9.57198 40.3338 9.93227 40.3338C10.2926 40.3338 10.5919 40.0655 10.6192 39.718L13.3091 5.66719H25.0878C26.6089 5.66886 27.8416 6.86186 27.8433 8.33385V9.00052C27.8416 10.4725 26.6089 11.6655 25.0878 11.6672H20.2656C17.984 11.6694 16.1346 13.4592 16.1323 15.6672V17.0005C16.1346 19.2085 17.984 20.9982 20.2656 21.0005C21.7866 21.0022 23.0194 22.1952 23.0211 23.6672V29.6671C23.0211 29.844 23.0937 30.0135 23.2229 30.1385C23.3521 30.2636 23.5273 30.3338 23.71 30.3338C23.8927 30.3338 24.0679 30.2636 24.1971 30.1385C24.3263 30.0135 24.3989 29.844 24.3989 29.6671V23.6672C24.3966 21.4592 22.5472 19.6694 20.2656 19.6672C18.7445 19.6655 17.5118 18.4725 17.51 17.0005V15.6672C17.5118 14.1952 18.7445 13.0022 20.2656 13.0005H25.0878C27.3694 12.9983 29.2188 11.2085 29.2211 9.00052V8.33385C29.2188 6.12586 27.3694 4.33611 25.0878 4.33386H13.3642C13.333 3.22901 12.9064 2.1689 12.1574 1.33454C11.8841 1.02109 11.5434 0.769154 11.1591 0.596337C10.7747 0.42352 10.3561 0.333984 9.93227 0.333984C9.50848 0.333984 9.0898 0.42352 8.70548 0.596337C8.32115 0.769154 7.98045 1.02109 7.70716 1.33454C6.95825 2.16898 6.53172 3.22904 6.50031 4.33386H1.66562C1.48291 4.33386 1.30769 4.4041 1.1785 4.52912C1.04931 4.65415 0.976729 4.82372 0.976729 5.00053C0.976729 5.17734 1.04931 5.34691 1.1785 5.47193C1.30769 5.59696 1.48291 5.66719 1.66562 5.66719ZM8.71862 2.24012C8.86267 2.0617 9.04683 1.91739 9.25712 1.81814C9.46741 1.71888 9.6983 1.6673 9.93227 1.6673C10.1662 1.6673 10.3971 1.71888 10.6074 1.81814C10.8177 1.91739 11.0019 2.0617 11.1459 2.24012C11.6602 2.82672 11.9535 3.56492 11.9777 4.33386H10.6212V3.6672C10.6212 3.49039 10.5486 3.32082 10.4194 3.19579C10.2902 3.07077 10.115 3.00053 9.93227 3.00053C9.74956 3.00053 9.57434 3.07077 9.44515 3.19579C9.31596 3.32082 9.24338 3.49039 9.24338 3.6672V7.66719C9.24338 7.844 9.31596 8.01357 9.44515 8.13859C9.57434 8.26362 9.74956 8.33385 9.93227 8.33385C10.115 8.33385 10.2902 8.26362 10.4194 8.13859C10.5486 8.01357 10.6212 7.844 10.6212 7.66719V5.66719H11.9269L9.93227 30.9205L7.87904 4.92653C7.82526 4.44711 7.87189 3.96213 8.01615 3.50055C8.1604 3.03896 8.39932 2.61034 8.71862 2.24012Z" fill="white"/>
</g>
<defs>
<clipPath id="clip0_1_511">
<rect width="41.3333" height="40" fill="white" transform="translate(0.28772 0.333496)"/>
</clipPath>
</defs>
</svg>
