<svg width="44" height="44" viewBox="0 0 44 44" fill="none" xmlns="http://www.w3.org/2000/svg">
<path d="M8.2643 40.4566C8.25729 40.4636 8.25335 40.4731 8.25335 40.483C8.25335 40.483 8.25335 40.4831 8.25335 40.4831C8.25336 40.488 8.25435 40.4929 8.25621 40.4974C8.25807 40.5018 8.2608 40.506 8.2643 40.5094C8.26779 40.5129 8.27191 40.5157 8.27638 40.5175C8.28086 40.5194 8.2857 40.5204 8.29065 40.5204C8.29067 40.5204 8.2907 40.5204 8.29073 40.5204C8.30101 40.5204 8.31036 40.5162 8.31713 40.5094C8.32388 40.5027 8.32808 40.4934 8.3281 40.4831C8.3281 40.4831 8.3281 40.483 8.3281 40.483C8.32809 40.4781 8.32713 40.4733 8.32525 40.4688C8.32337 40.4642 8.32061 40.4601 8.31713 40.4566C8.31365 40.4531 8.30952 40.4504 8.30498 40.4485C8.30046 40.4466 8.29562 40.4456 8.29073 40.4456C8.2907 40.4456 8.29067 40.4456 8.29065 40.4456C8.29064 40.4456 8.29064 40.4456 8.29064 40.4456C8.28076 40.4457 8.27129 40.4496 8.2643 40.4566Z" fill="#4B80E5" stroke="white" stroke-width="1.33333"/>
<path d="M5.74635 40.4566C5.73934 40.4636 5.7354 40.4731 5.7354 40.483C5.7354 40.483 5.7354 40.4831 5.7354 40.4831C5.73541 40.488 5.7364 40.4929 5.73827 40.4974C5.74013 40.5018 5.74286 40.506 5.74635 40.5094C5.74985 40.5129 5.75396 40.5157 5.75844 40.5175C5.76292 40.5194 5.76776 40.5204 5.7727 40.5204C5.77273 40.5204 5.77276 40.5204 5.77278 40.5204C5.78307 40.5204 5.79241 40.5162 5.79919 40.5094C5.80594 40.5027 5.81014 40.4934 5.81016 40.4831C5.81016 40.4831 5.81016 40.483 5.81016 40.483C5.81015 40.4781 5.80918 40.4733 5.80731 40.4688C5.80543 40.4642 5.80267 40.4601 5.79919 40.4566C5.79571 40.4531 5.79158 40.4504 5.78703 40.4485C5.78251 40.4466 5.77767 40.4456 5.77278 40.4456C5.77276 40.4456 5.77273 40.4456 5.7727 40.4456C5.7727 40.4456 5.7727 40.4456 5.77269 40.4456C5.76281 40.4457 5.75334 40.4496 5.74635 40.4566Z" fill="#4B80E5" stroke="white" stroke-width="1.33333"/>
<path d="M10.7813 40.4566C10.7743 40.4636 10.7703 40.4731 10.7703 40.483C10.7703 40.483 10.7703 40.4831 10.7703 40.4831C10.7703 40.488 10.7713 40.4929 10.7732 40.4974C10.775 40.5018 10.7778 40.506 10.7813 40.5094C10.7848 40.5129 10.7889 40.5157 10.7934 40.5175C10.7978 40.5194 10.8027 40.5204 10.8076 40.5204C10.8076 40.5204 10.8077 40.5204 10.8077 40.5204C10.818 40.5204 10.8273 40.5162 10.8341 40.5094C10.8409 40.5027 10.845 40.4934 10.8451 40.4831C10.8451 40.4831 10.8451 40.483 10.8451 40.483C10.8451 40.4781 10.8441 40.4733 10.8422 40.4688C10.8403 40.4642 10.8376 40.4601 10.8341 40.4566C10.8306 40.4531 10.8265 40.4504 10.8219 40.4485C10.8174 40.4466 10.8126 40.4456 10.8077 40.4456C10.8077 40.4456 10.8076 40.4456 10.8076 40.4456C10.8076 40.4456 10.8076 40.4456 10.8076 40.4456C10.7977 40.4457 10.7883 40.4496 10.7813 40.4566Z" fill="#4B80E5" stroke="white" stroke-width="1.33333"/>
<path d="M15.2396 43V23.4081" stroke="white" stroke-width="1.33333" stroke-miterlimit="10" stroke-linecap="round" stroke-linejoin="round"/>
<path d="M1.33984 43H20.9317V23.4081H1.33984V43Z" stroke="white" stroke-width="1.33333" stroke-miterlimit="10" stroke-linecap="round" stroke-linejoin="round"/>
<path d="M10.1781 23.4083V29.7012H6.40234V25.9254" stroke="white" stroke-width="1.33333" stroke-miterlimit="10" stroke-linecap="round" stroke-linejoin="round"/>
<path d="M30.3727 40.4566C30.3657 40.4636 30.3617 40.4731 30.3617 40.483C30.3617 40.483 30.3617 40.4831 30.3617 40.4831C30.3618 40.488 30.3627 40.4929 30.3646 40.4974C30.3665 40.5018 30.3692 40.506 30.3727 40.5094C30.3762 40.5129 30.3803 40.5157 30.3848 40.5175C30.3893 40.5194 30.3941 40.5204 30.399 40.5204C30.3991 40.5204 30.3991 40.5204 30.3991 40.5204C30.4094 40.5204 30.4188 40.5162 30.4255 40.5094C30.4323 40.5027 30.4365 40.4934 30.4365 40.4831C30.4365 40.4831 30.4365 40.483 30.4365 40.483C30.4365 40.4781 30.4355 40.4733 30.4337 40.4688C30.4318 40.4642 30.429 40.4601 30.4255 40.4566C30.4221 40.4531 30.4179 40.4504 30.4134 40.4485C30.4089 40.4466 30.404 40.4456 30.3991 40.4456C30.3991 40.4456 30.3991 40.4456 30.399 40.4456C30.399 40.4456 30.399 40.4456 30.399 40.4456C30.3892 40.4457 30.3797 40.4496 30.3727 40.4566Z" fill="#4B80E5" stroke="white" stroke-width="1.33333"/>
<path d="M27.8552 40.4566C27.8482 40.4636 27.8443 40.4731 27.8443 40.483C27.8443 40.483 27.8443 40.4831 27.8443 40.4831C27.8443 40.488 27.8453 40.4929 27.8472 40.4974C27.849 40.5018 27.8517 40.506 27.8552 40.5094C27.8587 40.5129 27.8628 40.5157 27.8673 40.5175C27.8718 40.5194 27.8766 40.5204 27.8816 40.5204C27.8816 40.5204 27.8816 40.5204 27.8817 40.5204C27.892 40.5204 27.9013 40.5162 27.9081 40.5094C27.9148 40.5027 27.919 40.4934 27.919 40.4831C27.919 40.4831 27.919 40.483 27.919 40.483C27.919 40.4781 27.9181 40.4733 27.9162 40.4688C27.9143 40.4642 27.9116 40.4601 27.9081 40.4566C27.9046 40.4531 27.9005 40.4504 27.8959 40.4485C27.8914 40.4466 27.8866 40.4456 27.8817 40.4456C27.8816 40.4456 27.8816 40.4456 27.8816 40.4456C27.8816 40.4456 27.8816 40.4456 27.8816 40.4456C27.8717 40.4457 27.8622 40.4496 27.8552 40.4566Z" fill="#4B80E5" stroke="white" stroke-width="1.33333"/>
<path d="M32.8896 40.4566C32.8826 40.4636 32.8787 40.4731 32.8787 40.483C32.8787 40.483 32.8787 40.4831 32.8787 40.4831C32.8787 40.488 32.8797 40.4929 32.8815 40.4974C32.8834 40.5018 32.8861 40.506 32.8896 40.5094C32.8931 40.5129 32.8972 40.5157 32.9017 40.5175C32.9062 40.5194 32.911 40.5204 32.916 40.5204C32.916 40.5204 32.916 40.5204 32.916 40.5204C32.9263 40.5204 32.9357 40.5162 32.9424 40.5094C32.9492 40.5027 32.9534 40.4934 32.9534 40.4831C32.9534 40.4831 32.9534 40.483 32.9534 40.483C32.9534 40.4781 32.9524 40.4733 32.9506 40.4688C32.9487 40.4642 32.9459 40.4601 32.9424 40.4566C32.939 40.4531 32.9348 40.4504 32.9303 40.4485C32.9258 40.4466 32.9209 40.4456 32.916 40.4456C32.916 40.4456 32.916 40.4456 32.916 40.4456C32.9159 40.4456 32.9159 40.4456 32.9159 40.4456C32.9061 40.4457 32.8966 40.4496 32.8896 40.4566Z" fill="#4B80E5" stroke="white" stroke-width="1.33333"/>
<path d="M37.3488 43V23.4081" stroke="white" stroke-width="1.33333" stroke-miterlimit="10" stroke-linecap="round" stroke-linejoin="round"/>
<path d="M23.4492 43H43.0411V23.4081H23.4492V43Z" stroke="white" stroke-width="1.33333" stroke-miterlimit="10" stroke-linecap="round" stroke-linejoin="round"/>
<path d="M32.2875 23.4083V29.7012H28.5117V23.4083" stroke="white" stroke-width="1.33333" stroke-miterlimit="10" stroke-linecap="round" stroke-linejoin="round"/>
<path d="M22.1639 18.3472C22.1569 18.3542 22.1529 18.3637 22.1529 18.3736C22.1529 18.3836 22.1569 18.3931 22.1639 18.4001C22.1709 18.4071 22.1804 18.411 22.1903 18.411C22.2002 18.411 22.2097 18.4071 22.2168 18.4001C22.2238 18.3931 22.2277 18.3836 22.2277 18.3736C22.2277 18.3637 22.2238 18.3542 22.2168 18.3472C22.2097 18.3402 22.2002 18.3363 22.1903 18.3363C22.1804 18.3363 22.1709 18.3402 22.1639 18.3472Z" fill="#4B80E5" stroke="white" stroke-width="1.33333"/>
<path d="M19.6471 18.3477C19.6401 18.3547 19.6362 18.3642 19.6362 18.3741C19.6362 18.384 19.6401 18.3935 19.6471 18.4006C19.6541 18.4076 19.6636 18.4115 19.6735 18.4115C19.6835 18.4115 19.693 18.4076 19.7 18.4006C19.707 18.3935 19.7109 18.384 19.7109 18.3741C19.7109 18.3642 19.707 18.3547 19.7 18.3477C19.693 18.3407 19.6835 18.3368 19.6735 18.3368C19.6636 18.3368 19.6541 18.3407 19.6471 18.3477Z" fill="#4B80E5" stroke="white" stroke-width="1.33333"/>
<path d="M24.6808 18.3472C24.6738 18.3542 24.6699 18.3637 24.6699 18.3736C24.6699 18.3836 24.6738 18.3931 24.6808 18.4001C24.6878 18.4071 24.6973 18.411 24.7072 18.411C24.7171 18.411 24.7267 18.4071 24.7337 18.4001C24.7407 18.3931 24.7446 18.3836 24.7446 18.3736C24.7446 18.3637 24.7407 18.3542 24.7337 18.3472C24.7267 18.3402 24.7171 18.3363 24.7072 18.3363C24.6973 18.3363 24.6878 18.3402 24.6808 18.3472Z" fill="#4B80E5" stroke="white" stroke-width="1.33333"/>
<path d="M29.1406 20.8916V1.29975" stroke="white" stroke-width="1.33333" stroke-miterlimit="10" stroke-linecap="round" stroke-linejoin="round"/>
<path d="M15.2396 20.8916H34.8314V1.29975H15.2396V20.8916Z" stroke="white" stroke-width="1.33333" stroke-miterlimit="10" stroke-linecap="round" stroke-linejoin="round"/>
<path d="M24.0778 1.29891V7.5918H20.3021V1.29891" stroke="white" stroke-width="1.33333" stroke-miterlimit="10" stroke-linecap="round" stroke-linejoin="round"/>
</svg>
