<svg width="58" height="58" viewBox="0 0 58 58" fill="none" xmlns="http://www.w3.org/2000/svg">
<path d="M34.8212 28.5522C33.9253 28.2153 33.9253 26.9289 33.8698 26.0331C33.6458 22.8421 34.7656 17.9706 33.4219 15.8994C32.4705 14.6668 27.8785 14.7796 25.0799 14.9481C24.2951 15.0609 23.3438 15.2276 22.6719 15.5644C22 15.9012 21.3281 16.4602 21.3281 16.9637C21.3281 17.6911 23.0087 17.58 23.6233 18.5314C24.2951 19.5401 24.2951 21.7223 24.2951 23.514C24.2951 25.5852 23.9583 28.33 23.1198 28.4411C21.8316 28.4966 21.1042 27.2084 20.4323 26.2571C19.0885 24.4098 17.7448 22.1129 16.7361 19.8733C16.2326 18.698 15.9513 17.4098 15.2239 16.9063C14.1041 16.1216 12.0885 16.0661 10.1284 16.1216C8.33676 16.1771 5.76034 15.9532 5.25688 17.0174C4.86451 18.1928 5.7048 19.3126 6.15271 20.2657C8.44784 25.2483 10.9114 29.6164 13.9357 33.7588C16.7361 37.6216 19.3663 40.7015 24.5173 42.3247C25.9739 42.7726 32.3558 44.0608 33.644 42.3247C34.092 41.6528 33.9809 40.1407 34.2048 39.0209C34.4288 37.9011 34.7083 36.7813 35.7725 36.7258C36.6684 36.6702 37.1718 37.4532 37.7326 38.014C38.349 38.6303 38.8524 39.1338 39.3003 39.6945C40.3646 40.7588 41.4844 42.2136 42.8281 42.7744C44.6753 43.5592 47.5313 43.3352 50.2188 43.2223C52.4028 43.1668 53.9705 42.7189 54.1389 41.4307C54.2518 40.422 53.1302 38.9671 52.4583 38.1268C50.7778 36.0557 49.9948 35.4393 48.0903 33.5348C47.25 32.6945 46.1857 31.7987 46.1857 30.7918C46.1302 30.1754 46.6336 29.6164 47.0816 29.0001C49.0416 26.0886 51.0017 24.0175 52.7934 20.9931C53.2968 20.0973 54.474 18.0261 54.026 17.0174C53.5226 15.8976 50.7222 16.2327 48.9861 16.2327C46.7465 16.2327 43.835 16.0643 43.2743 16.5122C42.21 17.2396 41.7621 18.4167 41.2586 19.5365C40.1388 22.1129 38.6267 24.7431 37.059 26.7032C36.4982 27.3751 35.4357 28.7743 34.8194 28.5504L34.8212 28.5522Z" fill="#79A7FF"/>
</svg>
