<svg width="47" height="48" viewBox="0 0 47 48" fill="none" xmlns="http://www.w3.org/2000/svg">
<path d="M44.6667 17.3892C44.2778 14.4725 43.8889 12.3336 42.7222 11.5558C41.5555 10.5836 31.4444 10.3892 23.6667 10.3892C15.8889 10.3892 5.77777 10.5836 4.6111 11.5558C3.44444 12.3336 3.05555 14.4725 2.66666 17.3892C2.27777 20.3058 2.27777 22.0558 2.27777 24.0003C2.27777 25.9447 2.27777 27.6947 2.66666 30.6114C3.05555 33.528 3.44444 35.6669 4.6111 36.4447C5.77777 37.4169 15.8889 37.6114 23.6667 37.6114C31.4444 37.6114 41.5555 37.4169 42.7222 36.4447C43.8889 35.6669 44.2778 33.528 44.6667 30.6114C45.0555 27.6947 45.0555 25.9447 45.0555 24.0003C45.0555 22.0558 45.0555 20.3058 44.6667 17.3892ZM19.7778 31.0003V17.0003L31.4444 24.0003L19.7778 31.0003Z" fill="#FF5252"/>
</svg>
