<svg width="51" height="51" viewBox="0 0 51 51" fill="none" xmlns="http://www.w3.org/2000/svg">
<path fill-rule="evenodd" clip-rule="evenodd" d="M22.2695 45.7809L22.7975 44.8892C23.6436 43.4598 24.0665 42.7451 24.7403 42.3466C25.4142 41.9478 26.2933 41.9197 28.0512 41.8636C29.6995 41.8108 30.8074 41.667 31.7547 41.2746C33.7491 40.4485 35.3335 38.8641 36.1595 36.8697C36.7791 35.374 36.7791 33.4778 36.7791 29.6854V28.0575C36.7791 22.7289 36.7791 20.0645 35.5798 18.1072C34.9087 17.012 33.9878 16.0912 32.8926 15.4201C30.9354 14.2207 28.2712 14.2207 22.9425 14.2207H18.0589C12.7303 14.2207 10.066 14.2207 8.10872 15.4201C7.01354 16.0912 6.09276 17.012 5.42161 18.1072C4.22223 20.0645 4.22223 22.7289 4.22223 28.0575V29.6854C4.22223 33.4778 4.22223 35.374 4.8418 36.8697C5.66788 38.8641 7.25237 40.4485 9.24672 41.2746C10.1939 41.667 11.3018 41.8108 12.9501 41.8636C14.7081 41.9197 15.5871 41.9478 16.2609 42.3466C16.9347 42.7451 17.3578 43.4598 18.2038 44.8892L18.7317 45.7809C19.5182 47.1099 21.4831 47.1099 22.2695 45.7809ZM27.6224 30.4992C28.7464 30.4992 29.6573 29.5881 29.6573 28.4643C29.6573 27.3406 28.7464 26.4296 27.6224 26.4296C26.4987 26.4296 25.5877 27.3406 25.5877 28.4643C25.5877 29.5881 26.4987 30.4992 27.6224 30.4992ZM22.5355 28.4643C22.5355 29.5881 21.6245 30.4992 20.5007 30.4992C19.3769 30.4992 18.4659 29.5881 18.4659 28.4643C18.4659 27.3406 19.3769 26.4296 20.5007 26.4296C21.6245 26.4296 22.5355 27.3406 22.5355 28.4643ZM13.3789 30.4992C14.5026 30.4992 15.4137 29.5881 15.4137 28.4643C15.4137 27.3406 14.5026 26.4296 13.3789 26.4296C12.2551 26.4296 11.344 27.3406 11.344 28.4643C11.344 29.5881 12.2551 30.4992 13.3789 30.4992Z" fill="#FFF06B"/>
<path d="M32.0247 4.55566C34.4563 4.55564 36.3897 4.55564 37.9403 4.70306C39.5304 4.85424 40.8747 5.17114 42.0721 5.90498C43.3042 6.66002 44.3401 7.6959 45.095 8.92799C45.8291 10.1255 46.146 11.4698 46.2971 13.0598C46.4445 14.6104 46.4445 16.5441 46.4445 18.9754V20.636C46.4445 22.3665 46.4445 23.7427 46.3682 24.8589C46.2903 26.0005 46.1278 26.9812 45.7474 27.8993C44.8181 30.1428 43.0357 31.9254 40.792 32.8547C40.7358 32.8779 40.6794 32.9005 40.6227 32.922C40.3518 33.0257 40.12 33.1144 39.9163 33.1804C39.9458 32.1907 39.9458 31.0634 39.9458 29.7913V27.9075C39.9458 25.3708 39.9458 23.2458 39.7816 21.5182C39.6097 19.7096 39.2357 18.0123 38.2797 16.4525C37.3475 14.9312 36.0686 13.6522 34.5473 12.72C32.9874 11.7641 31.2903 11.39 29.4815 11.2181C27.754 11.0538 25.6289 11.0539 23.0922 11.0539H17.9091C16.1863 11.0539 14.6533 11.0539 13.3058 11.1053C13.3686 10.8877 13.4546 10.6384 13.5556 10.3457C13.7273 9.84784 13.9443 9.37704 14.2195 8.92799C14.9745 7.6959 16.0104 6.66002 17.2425 5.90498C18.44 5.17114 19.7843 4.85424 21.3744 4.70306C22.925 4.55564 24.8584 4.55564 27.2899 4.55566H32.0247Z" fill="#FFF06B"/>
</svg>
