<svg width="33" height="33" viewBox="0 0 33 33" fill="none" xmlns="http://www.w3.org/2000/svg">
<path d="M31.9895 30.0208L30.6949 18.0713C30.6693 17.8313 30.5557 17.6093 30.376 17.4481C30.1964 17.2869 29.9634 17.1978 29.7221 17.1982H28.0015V16.5204C28.0015 14.8149 26.7206 13.4038 25.0704 13.1963V9.241L28.8122 10.7356C28.8663 10.7572 28.9241 10.7678 28.9823 10.7668C29.0405 10.7659 29.098 10.7534 29.1513 10.73C29.2046 10.7067 29.2528 10.673 29.293 10.6308C29.3332 10.5887 29.3646 10.539 29.3854 10.4846L31.4957 4.96936C31.5369 4.86158 31.5341 4.74191 31.4878 4.63621C31.4416 4.5305 31.3555 4.44725 31.2484 4.40444L24.7941 1.82642C24.7642 1.81448 24.7331 1.80586 24.7013 1.80069L19.7864 1.00565C19.7632 1.00188 19.7398 1 19.7163 1H12.8085C12.785 1 12.7616 1.00188 12.7383 1.00565L7.82339 1.80069C7.7916 1.80583 7.76047 1.81446 7.73058 1.82642L1.27632 4.40444C1.16916 4.44725 1.08315 4.5305 1.03687 4.63621C0.990596 4.74191 0.98777 4.86158 1.02901 4.96936L3.13932 10.4846C3.16014 10.539 3.19156 10.5887 3.23175 10.6308C3.27194 10.6729 3.3201 10.7066 3.37343 10.73C3.42676 10.7533 3.4842 10.7658 3.54242 10.7668C3.60063 10.7678 3.65845 10.7571 3.71252 10.7356L7.45427 9.241V23.721C6.83574 23.6988 6.21736 23.7691 5.61963 23.9297C2.30104 24.8189 0.324586 28.2422 1.21376 31.5609C1.22866 31.6166 1.25441 31.6689 1.28952 31.7146C1.32463 31.7604 1.36842 31.7988 1.41839 31.8277C1.46835 31.8565 1.52351 31.8752 1.58071 31.8827C1.63791 31.8903 1.69603 31.8864 1.75175 31.8715L7.89913 30.2243L14.313 31.9428C14.4603 31.9823 14.6083 32.0011 14.754 32.0011C15.5069 32.0011 16.1979 31.4979 16.4018 30.7369L16.7295 29.5137C16.7597 29.4012 16.7439 29.2813 16.6856 29.1804C16.6274 29.0795 16.5314 29.0059 16.4189 28.9757L13.185 28.1092C12.9268 27.2697 12.4928 26.4948 11.912 25.836H17.764L17.3106 30.0208C17.2557 30.527 17.4178 31.033 17.7553 31.4091C18.0928 31.7852 18.5785 32.0009 19.0877 32.0009H30.2125C30.7217 32.0009 31.2073 31.7852 31.5448 31.4091C31.8823 31.033 32.0444 30.527 31.9895 30.0208ZM25.0705 2.88283L30.5205 5.05972L28.7241 9.75434L25.0704 8.29498L25.0705 2.88283ZM27.1229 16.5204V17.1982H25.0704V14.084C26.2343 14.2843 27.1229 15.3002 27.1229 16.5204ZM24.1919 17.1982H22.1773V16.5204C22.1773 15.3135 23.0467 14.3064 24.1919 14.0909V17.1982ZM19.2796 1.87863C19.0659 3.35255 17.7946 4.48866 16.2624 4.48866C14.7302 4.48866 13.4588 3.35255 13.2451 1.87863H19.2796ZM3.80063 9.75434L2.00428 5.05972L7.45427 2.88283V8.29498L3.80063 9.75434ZM5.84699 24.7783C6.29835 24.657 6.76368 24.5955 7.23105 24.5953C7.67849 24.5953 8.11871 24.6529 8.54312 24.7609C8.26964 25.4419 7.9408 26.819 8.20782 29.232L1.96593 30.9045C1.47161 28.1935 3.13919 25.5039 5.84699 24.7783ZM15.5533 30.5094C15.4352 30.95 14.9807 31.2121 14.5404 31.0942L9.5964 29.7694L12.7917 28.9133L15.7673 29.7106L15.5533 30.5094ZM9.0675 29.0017C8.83945 26.7667 9.17098 25.5575 9.37996 25.0489C10.6906 25.625 11.7618 26.7181 12.2712 28.1433L9.0675 29.0017ZM10.9582 24.9575C10.1828 24.3796 9.28427 23.989 8.33283 23.8161V2.60828L12.3695 1.95531C12.6231 3.87799 14.2715 5.36716 16.2624 5.36716C18.2533 5.36716 19.9017 3.87799 20.1553 1.95531L24.1919 2.60828V13.2011C22.5601 13.4254 21.2988 14.8279 21.2988 16.5204V17.1982H19.5781C19.3368 17.1978 19.1038 17.2868 18.9242 17.4481C18.7445 17.6093 18.631 17.8313 18.6053 18.0713L17.8592 24.9575H10.9582ZM30.8909 30.8223C30.7173 31.0157 30.4764 31.1222 30.2124 31.1222H19.0878C18.8238 31.1222 18.5829 31.0157 18.4093 30.8222C18.2356 30.6287 18.1557 30.3778 18.1842 30.1154L19.4787 18.1659C19.4811 18.1413 19.4926 18.1185 19.511 18.1019C19.5294 18.0854 19.5534 18.0764 19.5781 18.0767H21.2987V19.2174C21.2391 19.2756 21.1918 19.3451 21.1594 19.4219C21.1271 19.4987 21.1105 19.5812 21.1104 19.6645C21.1104 20.0101 21.3923 20.292 21.738 20.292C22.0836 20.292 22.3655 20.0101 22.3655 19.6645C22.3655 19.5812 22.3488 19.4987 22.3165 19.4219C22.2842 19.3451 22.2368 19.2756 22.1773 19.2174V18.0767H27.1228V19.2174C27.0633 19.2756 27.0159 19.3451 26.9836 19.4219C26.9513 19.4987 26.9346 19.5812 26.9346 19.6645C26.9346 20.0101 27.2165 20.292 27.5621 20.292C27.9078 20.292 28.1897 20.0101 28.1897 19.6645C28.1896 19.5812 28.173 19.4987 28.1406 19.4219C28.1083 19.3451 28.061 19.2756 28.0014 19.2174V18.0767H29.722C29.774 18.0767 29.8158 18.1143 29.8214 18.1659L31.116 30.1154C31.1445 30.3778 31.0646 30.6288 30.8909 30.8223ZM27.1501 24.2333L25.6204 24.1399L25.0588 22.7139C25.0265 22.6319 24.9702 22.5614 24.8973 22.5118C24.8244 22.4622 24.7383 22.4356 24.6501 22.4356C24.5619 22.4356 24.4758 22.4622 24.4029 22.5118C24.33 22.5614 24.2737 22.6319 24.2414 22.7139L23.6799 24.1399L22.1502 24.2333C22.0621 24.2387 21.9778 24.2705 21.9081 24.3245C21.8384 24.3785 21.7865 24.4522 21.7592 24.5361C21.732 24.62 21.7306 24.7101 21.7553 24.7948C21.78 24.8794 21.8295 24.9547 21.8976 25.0108L23.0802 25.9855L22.6964 27.4692C22.6743 27.5546 22.6785 27.6446 22.7083 27.7276C22.7381 27.8106 22.7922 27.8827 22.8635 27.9345C22.9348 27.9864 23.0201 28.0155 23.1082 28.0182C23.1964 28.021 23.2833 27.9971 23.3577 27.9497L24.6501 27.1261L25.9426 27.9497C26.017 27.9972 26.1039 28.0211 26.1921 28.0184C26.2802 28.0158 26.3655 27.9866 26.4369 27.9347C26.5082 27.8828 26.5623 27.8107 26.5921 27.7277C26.6219 27.6447 26.626 27.5546 26.6039 27.4692L26.22 25.9855L27.4027 25.0108C27.4708 24.9547 27.5204 24.8794 27.5451 24.7948C27.5698 24.7101 27.5684 24.62 27.5411 24.5361C27.5139 24.4522 27.462 24.3785 27.3923 24.3245C27.3225 24.2705 27.2382 24.2387 27.1501 24.2333ZM25.4453 25.4855C25.3807 25.5387 25.3327 25.6092 25.3069 25.6888C25.281 25.7683 25.2784 25.8536 25.2994 25.9346L25.4739 26.6093L24.8862 26.2348C24.8157 26.1898 24.7338 26.1659 24.6501 26.1659C24.5665 26.1659 24.4845 26.1898 24.414 26.2348L23.8263 26.6093L24.0008 25.9346C24.0218 25.8537 24.0192 25.7684 23.9934 25.6888C23.9675 25.6093 23.9195 25.5388 23.8549 25.4856L23.3171 25.0423L24.0128 24.9998C24.0962 24.9947 24.1765 24.9659 24.2442 24.9167C24.3118 24.8676 24.3641 24.8001 24.3947 24.7223L24.65 24.0738L24.9055 24.7223C24.9361 24.8001 24.9883 24.8676 25.056 24.9167C25.1236 24.9659 25.2039 24.9947 25.2874 24.9998L25.9831 25.0423L25.4453 25.4855Z" fill="white" stroke="white" stroke-width="0.3"/>
</svg>
