<svg width="41" height="41" viewBox="0 0 41 41" fill="none" xmlns="http://www.w3.org/2000/svg">
<path d="M24.4954 20.0212C23.8704 19.7862 23.8704 18.8887 23.8317 18.2637C23.6754 16.0374 24.4567 12.6387 23.5192 11.1937C22.8554 10.3337 19.6517 10.4124 17.6992 10.5299C17.1517 10.6087 16.4879 10.7249 16.0192 10.9599C15.5504 11.1949 15.0817 11.5849 15.0817 11.9362C15.0817 12.4437 16.2542 12.3662 16.6829 13.0299C17.1517 13.7337 17.1517 15.2562 17.1517 16.5062C17.1517 17.9512 16.9167 19.8662 16.3317 19.9437C15.4329 19.9824 14.9254 19.0837 14.4567 18.4199C13.5192 17.1312 12.5817 15.5287 11.8779 13.9662C11.5267 13.1462 11.3304 12.2474 10.8229 11.8962C10.0417 11.3487 8.63544 11.3099 7.26794 11.3487C6.01794 11.3874 4.22044 11.2312 3.86919 11.9737C3.59544 12.7937 4.18169 13.5749 4.49419 14.2399C6.09544 17.7162 7.81419 20.7637 9.92419 23.6537C11.8779 26.3487 13.7129 28.4974 17.3067 29.6299C18.3229 29.9424 22.7754 30.8412 23.6742 29.6299C23.9867 29.1612 23.9092 28.1062 24.0654 27.3249C24.2217 26.5437 24.4167 25.7624 25.1592 25.7237C25.7842 25.6849 26.1354 26.2312 26.5267 26.6224C26.9567 27.0524 27.3079 27.4037 27.6204 27.7949C28.3629 28.5374 29.1442 29.5524 30.0817 29.9437C31.3704 30.4912 33.3629 30.3349 35.2379 30.2562C36.7617 30.2174 37.8554 29.9049 37.9729 29.0062C38.0517 28.3024 37.2692 27.2874 36.8004 26.7012C35.6279 25.2562 35.0817 24.8262 33.7529 23.4974C33.1667 22.9112 32.4242 22.2862 32.4242 21.5837C32.3854 21.1537 32.7367 20.7637 33.0492 20.3337C34.4167 18.3024 35.7842 16.8574 37.0342 14.7474C37.3854 14.1224 38.2067 12.6774 37.8942 11.9737C37.5429 11.1924 35.5892 11.4262 34.3779 11.4262C32.8154 11.4262 30.7842 11.3087 30.3929 11.6212C29.6504 12.1287 29.3379 12.9499 28.9867 13.7312C28.2054 15.5287 27.1504 17.3637 26.0567 18.7312C25.6654 19.1999 24.9242 20.1762 24.4942 20.0199L24.4954 20.0212Z" fill="#79A7FF"/>
</svg>
