<svg width="23" height="32" viewBox="0 0 23 32" fill="none" xmlns="http://www.w3.org/2000/svg">
<path fill-rule="evenodd" clip-rule="evenodd" d="M1.37198 28.1352V11.5016C1.37198 9.73733 2.51881 10.0686 4.22851 10.0686V10.6541C4.22851 11.8329 5.12909 12.8036 6.43071 12.8036C7.4509 12.8036 8.3937 11.7636 8.3937 10.6541V9.28278H14.5922V10.6541C14.5922 11.8329 15.4928 12.8036 16.7944 12.8036C17.8146 12.8036 18.7574 11.7636 18.7574 10.6541V10.0686C20.4742 10.0686 21.6139 9.73733 21.6139 11.5016V28.1352C21.6139 29.0212 21.2903 29.5682 20.4812 29.5682H2.49067C1.68155 29.5682 1.35791 29.0212 1.35791 28.1352H1.37198ZM0 10.1303V29.5066C0 30.5543 1.10462 31.2708 2.14592 31.2708H20.8541C21.8883 31.2708 23 30.5621 23 29.5066V10.1303C23 9.57554 22.6341 9.10558 22.3246 8.85134C21.9939 8.57398 21.4169 8.36597 20.8611 8.36597H17.8217V10.5848C17.8217 10.97 17.3643 11.6942 16.8718 11.6942C16.4778 11.6942 16.1753 11.7019 15.8868 11.3398C15.7813 11.2089 15.5632 10.8005 15.5632 10.5848V8.36597H7.46497V10.5848C7.46497 10.8005 7.26094 11.1857 7.16947 11.3013C6.78954 11.8252 5.92414 11.8329 5.5231 11.3398C5.41756 11.2089 5.19945 10.8005 5.19945 10.5848V8.36597H2.15999C1.12573 8.36597 0.0140716 9.07476 0.0140716 10.1303H0Z" fill="white"/>
<path fill-rule="evenodd" clip-rule="evenodd" d="M5.60079 6.15464V9.87581C5.60079 10.523 6.48026 10.808 6.83205 10.1763C7.03609 9.81418 6.84612 6.38576 6.91648 5.63845C7.08534 3.95891 8.33067 2.07906 9.99816 1.50894C10.8776 1.21618 11.4194 1.23929 12.2637 1.33174C14.2196 1.54746 15.7112 3.43502 16.063 5.52288C16.1897 6.2702 15.9786 9.76795 16.1404 10.1301C16.4429 10.7926 17.3928 10.5461 17.3928 9.86811C17.3928 7.87269 17.5898 5.32257 16.9143 3.67385C16.7596 3.30404 16.6188 3.05751 16.4148 2.71852C16.1685 2.31019 15.7745 1.84023 15.4157 1.53206C14.9584 1.13143 15.0217 1.02357 14.1915 0.584427C12.4959 -0.309272 9.58304 -0.21682 7.97185 1.13143C6.53655 2.3256 5.59375 4.06677 5.59375 6.15464H5.60079Z" fill="white"/>
</svg>
