<svg width="35" height="35" viewBox="0 0 35 35" fill="none" xmlns="http://www.w3.org/2000/svg">
<path d="M32.9333 12.4227C32.6445 10.256 32.3556 8.6671 31.4889 8.08932C30.6222 7.3671 23.1111 7.22266 17.3333 7.22266C11.5556 7.22266 4.04446 7.3671 3.17779 8.08932C2.31112 8.6671 2.02224 10.256 1.73335 12.4227C1.44446 14.5893 1.44446 15.8893 1.44446 17.3338C1.44446 18.7782 1.44446 20.0782 1.73335 22.2449C2.02224 24.4115 2.31112 26.0004 3.17779 26.5782C4.04446 27.3004 11.5556 27.4449 17.3333 27.4449C23.1111 27.4449 30.6222 27.3004 31.4889 26.5782C32.3556 26.0004 32.6445 24.4115 32.9333 22.2449C33.2222 20.0782 33.2222 18.7782 33.2222 17.3338C33.2222 15.8893 33.2222 14.5893 32.9333 12.4227ZM14.4445 22.5338V12.1338L23.1111 17.3338L14.4445 22.5338Z" fill="#FF5252"/>
</svg>
