<svg width="34" height="31" viewBox="0 0 34 31" fill="none" xmlns="http://www.w3.org/2000/svg">
<path fill-rule="evenodd" clip-rule="evenodd" d="M3.49662 10.8183L1.76624 9.1327C2.03521 8.60373 3.11109 7.07956 3.51455 6.58645C4.33042 5.59126 5.61252 3.9864 6.67047 3.28708C7.21737 2.91949 7.44152 2.785 8.11394 2.53396C9.4319 2.04982 9.93398 1.74498 11.3864 1.40429C11.4312 1.90637 11.7809 2.72224 12.005 3.06294C12.3009 3.51122 12.6954 3.92364 13.1347 4.21055C15.3044 5.62712 18.0838 5.61816 20.2355 4.18365C21.1052 3.60088 21.9121 2.32775 21.939 1.33256C23.0059 1.35946 26.6191 2.65052 27.5784 3.51122L28.1881 4.0402C29.4523 5.25056 30.7254 6.90922 31.6937 8.35269C31.8551 8.5858 32.0433 8.80097 32.1151 9.06994C32.0613 9.1596 30.5012 10.7824 30.4475 10.8183C29.8468 10.6569 27.8026 8.76511 27.0315 8.76511C26.0363 8.76511 25.6687 9.34788 25.6687 10.2803V29.7089H8.28429V10.2803C8.28429 8.82787 7.27117 8.28993 6.05184 9.11477C5.7739 9.30305 3.75662 10.7465 3.50558 10.8183H3.49662ZM12.9823 1.25187H20.5762C20.2714 1.88843 20.2355 2.60569 19.2404 3.0988C17.3576 4.0402 16.21 4.0402 14.3272 3.0988C13.332 2.59672 13.2961 1.88843 12.9913 1.25187H12.9823ZM0 9.59892L3.02143 12.6562C3.36213 12.5486 3.75662 12.181 4.06145 11.9838C4.42008 11.7417 4.71595 11.5624 5.06561 11.3114C5.28079 11.15 6.84082 10.0382 7.07392 9.97548V31H26.8881V9.97548C27.1391 10.11 27.1839 10.1189 27.4081 10.2893L29.8916 11.9838C30.1516 12.1721 30.6268 12.5666 30.9137 12.6383L33.971 9.61685C33.8275 9.07891 32.7785 7.63544 32.3661 7.07956C31.5144 5.93196 30.6178 4.70366 29.6405 3.65467C29.4792 3.48433 29.4612 3.4126 29.2998 3.23329C28.8247 2.72224 28.4391 2.35465 27.7757 2.02292C26.5205 1.39532 25.2294 0.902209 23.8846 0.453925C23.3556 0.274611 22.1542 0.023572 21.4997 0.023572C19.9576 0.023572 12.4264 -0.0750505 11.4402 0.13116C11.1892 0.184954 11.1892 0.211851 10.8843 0.25668C10.176 0.382199 8.05118 1.17118 7.2622 1.49394C5.33458 2.26499 4.69802 3.19742 3.48765 4.63193L1.66762 6.98991C1.24623 7.55474 0.143451 9.04305 0.0179314 9.58995L0 9.59892Z" fill="white"/>
</svg>
