<svg width="146" height="197" viewBox="0 0 146 197" fill="none" xmlns="http://www.w3.org/2000/svg">
<path d="M67.028 3.84691C65.1729 5.70197 63.8479 8.88205 63.8479 11.0021C64.1129 14.4472 64.6429 14.1822 67.823 10.2071C69.9431 7.29201 73.3882 5.96696 75.7732 6.76199C80.2783 8.61703 81.3384 16.5672 77.0983 16.5672C75.5082 16.5672 73.1231 19.4823 71.7981 22.9274C70.2081 27.6975 66.233 30.3476 58.5478 32.2027C52.7176 33.7927 43.1773 36.4428 37.3472 37.7678C15.0866 43.598 -0.813813 67.9786 0.776229 94.2143L1.57125 107.73L14.0266 111.705L26.2169 115.415L28.072 144.831C29.132 160.996 29.397 177.162 29.132 180.872C28.337 186.437 29.662 188.027 38.6722 190.942C56.6927 197.037 87.4335 198.097 104.394 193.062L119.234 188.822L120.029 152.516L120.824 116.21L133.545 112.235L146 108.26V96.3344C146 63.7385 129.04 40.4179 103.599 36.9728C92.9987 35.6478 77.0983 28.2276 77.0983 24.7825C77.0983 23.4574 78.9533 21.0724 81.0734 19.2173C88.4936 13.1222 83.9884 0.666824 74.4482 0.666824C72.0631 0.666824 68.883 1.99187 67.028 3.84691ZM81.8684 35.3828C93.5287 39.3578 90.0836 43.0679 74.9782 43.0679C58.5478 43.0679 52.7176 39.3578 62.7879 35.6478C72.8581 31.9377 72.3281 31.9377 81.8684 35.3828ZM47.9475 45.718C47.9475 47.3081 50.8626 51.5482 54.5727 54.9933C59.3428 60.0284 63.8479 61.6185 72.5931 61.6185C85.0485 61.6185 98.2988 53.9332 98.2988 46.778C98.2988 39.0928 112.609 43.863 125.595 55.7883C133.015 62.9435 140.7 83.349 140.7 96.0694C140.7 101.9 139.11 103.755 131.16 106.14L121.354 109.055L122.944 95.2743C124.004 87.5891 125.33 78.8439 126.39 75.3988C128.775 66.9186 122.679 67.9786 118.969 76.7238C117.379 80.964 115.524 106.14 114.729 133.7L113.669 183.257L103.864 186.702C92.2037 190.677 60.9328 190.677 46.3574 186.437L35.4921 183.522L33.9021 136.615C32.5771 92.3593 29.132 69.5687 24.3619 69.5687C20.3867 69.5687 19.0617 73.0137 21.1818 77.2539C22.5068 79.6389 24.3619 87.5891 25.4219 95.2743L27.2769 109.055L17.4717 105.875C5.28135 102.165 3.95631 99.2494 7.93142 81.229C12.7015 60.2934 28.0719 43.863 43.4424 43.333C45.8274 43.0679 47.9475 44.393 47.9475 45.718ZM73.1231 49.6931C78.9533 49.6931 86.6385 48.6331 90.3486 47.5731L96.9738 45.453L89.5536 52.0782C84.5184 56.5833 78.9533 58.9684 73.1231 58.9684C67.293 58.9684 61.7278 56.5833 56.6927 52.0782L49.2725 45.453L55.8977 47.5731C59.6078 48.6331 67.293 49.6931 73.1231 49.6931Z" fill="white"/>
<path d="M59.0778 81.494C54.8377 90.7692 55.1027 96.5994 60.1378 109.32C64.1129 119.125 65.1729 119.92 74.4482 119.92C83.7234 119.92 84.5184 119.125 88.7586 108.525C93.7937 95.0093 94.0587 90.5042 89.8186 81.494C87.1685 75.6638 85.0485 74.8688 74.4482 74.8688C63.8479 74.8688 61.7278 75.6638 59.0778 81.494ZM86.6385 87.3241C87.4335 91.8292 86.9035 100.044 85.0485 105.08C82.3984 113.03 80.8083 114.62 74.1832 114.62C68.353 114.62 66.233 113.03 64.9079 107.995C64.1129 104.285 62.2579 101.369 60.9328 101.369C57.4877 101.369 58.0177 93.1543 61.7278 85.2041C64.1129 80.1689 66.763 78.8439 74.9782 78.8439C84.2534 78.8439 85.3135 79.6389 86.6385 87.3241Z" fill="white"/>
<path d="M77.0981 89.4441C77.0981 91.5642 78.4232 93.4193 79.7482 93.4193C81.3383 93.4193 82.3983 91.5642 82.3983 89.4441C82.3983 87.3241 81.3383 85.469 79.7482 85.469C78.4232 85.469 77.0981 87.3241 77.0981 89.4441Z" fill="white"/>
<path d="M69.1479 104.02C69.1479 105.345 71.533 106.67 74.4481 106.67C77.3632 106.67 79.7482 105.345 79.7482 104.02C79.7482 102.43 77.3632 101.369 74.4481 101.369C71.533 101.369 69.1479 102.43 69.1479 104.02Z" fill="white"/>
</svg>
