<svg width="40" height="40" viewBox="0 0 40 40" fill="none" xmlns="http://www.w3.org/2000/svg">
<g clip-path="url(#clip0_1_768)">
<path fill-rule="evenodd" clip-rule="evenodd" d="M39.7476 19.5741C39.7476 8.76315 30.8497 0.000244141 19.873 0.000244141C8.89622 0.000244141 -0.00177002 8.7637 -0.00177002 19.5741C-0.00177002 30.3845 8.89648 39.1493 19.873 39.1493C30.8494 39.1493 39.7476 30.3852 39.7476 19.5741Z" fill="#FC3F1D"/>
<path fill-rule="evenodd" clip-rule="evenodd" d="M22.5236 11.0927H20.7017C17.3067 11.0927 15.5673 12.8053 15.5673 15.2528C15.5673 18.026 16.8095 19.3307 19.2942 21.043L21.3644 22.4301L15.4022 31.2385H10.9304L16.3128 23.4082C13.2484 21.2065 11.5099 19.0856 11.5099 15.5785C11.5099 11.0927 14.6567 8.07471 20.7017 8.07471H26.664V31.3205H22.5236V11.0927Z" fill="white"/>
</g>
<defs>
<clipPath id="clip0_1_768">
<rect width="40" height="40" fill="white"/>
</clipPath>
</defs>
</svg>
