<svg width="22" height="22" viewBox="0 0 22 22" fill="none" xmlns="http://www.w3.org/2000/svg">
<path fill-rule="evenodd" clip-rule="evenodd" d="M11.7515 0.607012L14.7955 7.07605L21.6001 8.11366C21.7762 8.14104 21.9223 8.27038 21.9772 8.44749C22.0321 8.62461 21.9862 8.81894 21.8589 8.94908L16.936 13.9834L18.0983 21.0934C18.1288 21.2768 18.057 21.4624 17.9131 21.5719C17.7692 21.6815 17.5782 21.696 17.4207 21.6093L11.334 18.2531L5.24745 21.6103C5.09 21.6973 4.89891 21.683 4.7549 21.5735C4.6109 21.4639 4.53909 21.2783 4.56982 21.0949L5.73213 13.9834L0.807846 8.94908C0.680487 8.81894 0.634641 8.62461 0.689511 8.44749C0.744382 8.27038 0.890496 8.14104 1.06665 8.11366L7.87123 7.07605L10.9166 0.607012C10.9941 0.439739 11.1563 0.333496 11.334 0.333496C11.5118 0.333496 11.674 0.439739 11.7515 0.607012Z" fill="#F59E0B"/>
</svg>
